<svg width="54" height="45" viewBox="0 0 54 45" fill="none" xmlns="http://www.w3.org/2000/svg">
<path d="M43.5 45.0001H10.5C4.71 45.0001 0 40.2901 0 34.5001C0 33.0721 0.282 31.6861 0.837 30.3841L12.099 0.963136C12.396 0.189136 13.269 -0.191864 14.037 0.0991357C14.811 0.396136 15.198 1.26314 14.901 2.03713L3.618 31.5121C3.201 32.4901 3 33.4801 3 34.5001C3 38.6341 6.366 42.0001 10.5 42.0001H43.5C47.634 42.0001 51 38.6341 51 34.5001C51 33.4801 50.799 32.4901 50.403 31.5631L39.099 2.03713C38.802 1.26314 39.189 0.396136 39.963 0.0991357C40.734 -0.194864 41.601 0.186136 41.901 0.963136L53.184 30.4381C53.718 31.6891 54 33.0721 54 34.5001C54 40.2901 49.29 45.0001 43.5 45.0001Z" fill="#505050"/>
</svg>
