<svg width="64" height="84" viewBox="0 0 64 84" fill="none" xmlns="http://www.w3.org/2000/svg">
<path d="M58.0947 69.9338H56.1502V23.1258C56.1502 23.0467 56.1445 22.9688 56.1336 22.8926C57.7728 20.9137 58.7591 18.3755 58.7591 15.611V3.25221C59.5181 3.10816 60.092 2.44141 60.092 1.64062C60.092 0.734672 59.3573 0 58.4513 0H5.54889C4.64294 0 3.90827 0.734672 3.90827 1.64062C3.90827 2.44141 4.48216 3.10816 5.24111 3.25221V15.611C5.24111 18.3661 6.22073 20.8966 7.85004 22.8726V22.8746V69.9338H5.90573C3.14866 69.9338 0.905762 72.1768 0.905762 74.9339V82.3594C0.905762 83.2653 1.64043 84 2.54639 84H61.4538C62.3598 84 63.0945 83.2653 63.0945 82.3594V74.9337C63.0945 72.1768 60.8516 69.9338 58.0947 69.9338ZM55.478 3.28125V15.611C55.478 20.105 51.8221 23.761 47.3282 23.761H16.6722C12.1783 23.761 8.52236 20.105 8.52236 15.611V3.28125H55.478ZM29.5358 33.6374H34.4647V37.202H29.5358V33.6374ZM23.8305 30.3562V27.0423H40.1699V30.3562H23.8305ZM11.1314 25.6074C12.7737 26.5214 14.6632 27.0423 16.6722 27.0423H20.5493V31.9968C20.5493 32.9027 21.284 33.6374 22.1899 33.6374H26.2544V38.8426C26.2544 39.7486 26.9891 40.4832 27.895 40.4832H36.1052C37.0112 40.4832 37.7458 39.7486 37.7458 38.8426V33.6374H41.8103C42.7163 33.6374 43.4509 32.9027 43.4509 31.9968V27.0423H47.3281C49.337 27.0423 51.2267 26.5212 52.8688 25.6074V69.9338H41.6443C42.2165 68.956 42.5448 67.8188 42.5448 66.6064V65.754H46.8826C47.7886 65.754 48.5233 65.0193 48.5233 64.1133V56.1045C48.5233 55.1985 47.7886 54.4638 46.8826 54.4638H42.5448V53.1584C42.5448 52.2524 41.8102 51.5178 40.9042 51.5178H23.1441C22.2382 51.5178 21.5035 52.2524 21.5035 53.1584V66.6064C21.5035 67.8188 21.8318 68.956 22.404 69.9338H11.1314V25.6074ZM24.7847 66.6063V54.7988H39.2639V66.6063C39.2639 68.4411 37.7711 69.9336 35.9364 69.9336H28.1124C26.2774 69.9338 24.7847 68.4411 24.7847 66.6063ZM42.545 57.7451H45.2422V62.4725H42.545V57.7451ZM59.8132 80.7188H4.18718V74.9337C4.18718 73.9861 4.95811 73.2149 5.90589 73.2149H58.0948C59.0425 73.2149 59.8136 73.986 59.8136 74.9337V80.7188H59.8132Z" fill="#505050"/>
</svg>
