<svg width="74" height="63" viewBox="0 0 74 63" fill="none" xmlns="http://www.w3.org/2000/svg">
<path d="M62.3921 19.95H60.3868C59.3397 19.2768 57.9889 18.9034 56.5882 18.9H53.6862V14.7C54.071 14.7 54.4401 14.5894 54.7122 14.3925C54.9843 14.1955 55.1372 13.9285 55.1372 13.65V9.45C55.1372 9.17152 54.9843 8.90445 54.7122 8.70754C54.4401 8.51062 54.071 8.4 53.6862 8.4H34.8234V6.3H36.2744C37.4288 6.3 38.536 5.96813 39.3524 5.37739C40.1687 4.78665 40.6273 3.98543 40.6273 3.15C40.6273 2.31457 40.1687 1.51335 39.3524 0.922614C38.536 0.331874 37.4288 0 36.2744 0H24.6665C23.512 0 22.4048 0.331874 21.5885 0.922614C20.7721 1.51335 20.3135 2.31457 20.3135 3.15C20.3135 3.98543 20.7721 4.78665 21.5885 5.37739C22.4048 5.96813 23.512 6.3 24.6665 6.3H26.1174V8.4H7.25462C6.8698 8.4 6.50073 8.51062 6.22862 8.70754C5.95651 8.90445 5.80364 9.17152 5.80364 9.45V12.6H1.45068C1.16374 12.6 0.883272 12.6616 0.644715 12.777C0.406159 12.8924 0.220229 13.0564 0.110432 13.2482C0.000636144 13.44 -0.0280967 13.6511 0.0278643 13.8548C0.0838253 14.0584 0.221968 14.2455 0.42483 14.3923L7.25462 19.3347V56.7C6.8698 56.7 6.50073 56.8106 6.22862 57.0075C5.95651 57.2044 5.80364 57.4715 5.80364 57.75V61.95C5.80364 62.2285 5.95651 62.4955 6.22862 62.6925C6.50073 62.8894 6.8698 63 7.25462 63H53.6862C54.071 63 54.4401 62.8894 54.7122 62.6925C54.9843 62.4955 55.1372 62.2285 55.1372 61.95V57.75C55.1372 57.4715 54.9843 57.2044 54.7122 57.0075C54.4401 56.8106 54.071 56.7 53.6862 56.7V52.5H56.5882C57.9889 52.4966 59.3397 52.1232 60.3868 51.45H62.3921C65.0284 51.4489 67.5611 50.7069 69.456 49.3806C71.3509 48.0542 72.4599 46.2471 72.549 44.3404C73.0042 44.0458 73.3687 43.6852 73.6186 43.2819C73.8686 42.8787 73.9986 42.4419 74 42V29.4C73.9986 28.9581 73.8686 28.5213 73.6186 28.118C73.3687 27.7148 73.0042 27.3542 72.549 27.0595C72.4599 25.1529 71.3509 23.3458 69.456 22.0194C67.5611 20.6931 65.0284 19.9511 62.3921 19.95ZM63.8126 44.3163C63.744 44.5521 63.5654 44.7637 63.3067 44.9155C63.0481 45.0673 62.7251 45.1501 62.3921 45.15H60.3868C59.3397 44.4768 57.9889 44.1034 56.5882 44.1H53.6862V27.3H56.5882C57.9889 27.2966 59.3397 26.9232 60.3868 26.25H62.3921C62.7251 26.2499 63.0481 26.3327 63.3067 26.4845C63.5654 26.6363 63.744 26.8479 63.8126 27.0837C63.3671 27.3776 63.0108 27.7352 62.7663 28.1339C62.5218 28.5326 62.3943 28.9638 62.3921 29.4V42C62.3943 42.4362 62.5218 42.8674 62.7663 43.2661C63.0108 43.6648 63.3671 44.0224 63.8126 44.3163ZM29.0194 14.7V17.85H10.1566V14.7H29.0194ZM50.7842 26.25H10.1566V19.95H50.7842V26.25ZM10.1566 28.35H29.0194V43.05H10.1566V28.35ZM31.9214 28.35H50.7842V43.05H31.9214V28.35ZM56.5882 21C57.3578 21 58.0959 21.2212 58.6402 21.6151C59.1844 22.0089 59.4901 22.543 59.4901 23.1C59.4901 23.657 59.1844 24.1911 58.6402 24.5849C58.0959 24.9787 57.3578 25.2 56.5882 25.2H53.6862V21H56.5882ZM50.7842 17.85H31.9214V14.7H50.7842V17.85ZM23.2155 3.15C23.2155 2.87152 23.3683 2.60445 23.6405 2.40754C23.9126 2.21062 24.2816 2.1 24.6665 2.1H36.2744C36.6592 2.1 37.0282 2.21062 37.3004 2.40754C37.5725 2.60445 37.7253 2.87152 37.7253 3.15C37.7253 3.42848 37.5725 3.69555 37.3004 3.89246C37.0282 4.08938 36.6592 4.2 36.2744 4.2H24.6665C24.2816 4.2 23.9126 4.08938 23.6405 3.89246C23.3683 3.69555 23.2155 3.42848 23.2155 3.15ZM29.0194 6.3H31.9214V8.4H29.0194V6.3ZM8.70561 10.5H52.2352V12.6H8.70561V10.5ZM7.25462 14.7V16.3653L4.95336 14.7H7.25462ZM52.2352 60.9H8.70561V58.8H52.2352V60.9ZM10.1566 56.7V45.15H50.7842V56.7H10.1566ZM56.5882 50.4H53.6862V46.2H56.5882C57.3578 46.2 58.0959 46.4212 58.6402 46.8151C59.1844 47.2089 59.4901 47.743 59.4901 48.3C59.4901 48.857 59.1844 49.3911 58.6402 49.7849C58.0959 50.1787 57.3578 50.4 56.5882 50.4ZM71.098 42C71.0978 42.1831 71.0305 42.363 70.9031 42.5212C70.7756 42.6794 70.5926 42.8104 70.3725 42.9009C70.1522 42.993 69.9691 43.1253 69.8418 43.2848C69.7145 43.4442 69.6473 43.625 69.647 43.8091V44.1C69.6447 45.4919 68.8796 46.8263 67.5196 47.8105C66.1595 48.7947 64.3155 49.3483 62.3921 49.35H62.1861C62.4608 48.6641 62.4608 47.9359 62.1861 47.25H62.3921C63.5466 47.25 64.6538 46.9181 65.4701 46.3274C66.2865 45.7366 66.7451 44.9354 66.7451 44.1V43.8091C66.7448 43.625 66.6776 43.4442 66.5503 43.2848C66.423 43.1253 66.2399 42.993 66.0196 42.9009C65.7995 42.8104 65.6165 42.6794 65.4891 42.5212C65.3616 42.363 65.2944 42.1831 65.2941 42V29.4C65.2944 29.2169 65.3616 29.037 65.4891 28.8788C65.6165 28.7206 65.7995 28.5896 66.0196 28.4991C66.2399 28.407 66.423 28.2747 66.5503 28.1152C66.6776 27.9558 66.7448 27.775 66.7451 27.5908V27.3C66.7451 26.4646 66.2865 25.6634 65.4701 25.0726C64.6538 24.4819 63.5466 24.15 62.3921 24.15H62.1861C62.4608 23.4641 62.4608 22.7359 62.1861 22.05H62.3921C64.3155 22.0517 66.1595 22.6053 67.5196 23.5895C68.8796 24.5737 69.6447 25.9081 69.647 27.3V27.5908C69.6473 27.775 69.7145 27.9558 69.8418 28.1152C69.9691 28.2747 70.1522 28.407 70.3725 28.4991C70.5926 28.5896 70.7756 28.7206 70.9031 28.8788C71.0305 29.037 71.0978 29.2169 71.098 29.4V42Z" fill="#505050"/>
</svg>
